<?xml version='1.0' encoding='utf-8'?>
<mlt LC_NUMERIC="C" producer="main_bin" version="7.2.0" root="/mnt/data/Files/Projects/Translating/src/-Songs/Vylet Pony/-Albums/Queen Of Misfits/01-Showtime/assets/video">
 <profile frame_rate_num="30000" sample_aspect_num="1" display_aspect_den="9" colorspace="709" progressive="1" description="HD 1080p 29.97 fps" display_aspect_num="16" frame_rate_den="1001" width="1920" height="1080" sample_aspect_den="1"/>
 <producer id="producer0" in="00:00:00.000" out="00:02:50.017">
  <property name="length">5096</property>
  <property name="eof">pause</property>
  <property name="resource">/mnt/data/Files/Projects/Translating/src/-Songs/Vylet Pony/-Albums/Queen Of Misfits/01-Showtime/assets/source/Showtime.mp3</property>
  <property name="meta.media.nb_streams">1</property>
  <property name="meta.media.0.stream.type">audio</property>
  <property name="meta.media.0.codec.sample_fmt">fltp</property>
  <property name="meta.media.0.codec.sample_rate">44100</property>
  <property name="meta.media.0.codec.channels">2</property>
  <property name="meta.media.0.codec.name">mp3float</property>
  <property name="meta.media.0.codec.long_name">MP3 (MPEG audio layer 3)</property>
  <property name="meta.media.0.codec.bit_rate">128000</property>
  <property name="meta.attr.0.stream.encoder.markup">LAME3.99r</property>
  <property name="seekable">1</property>
  <property name="audio_index">0</property>
  <property name="video_index">-1</property>
  <property name="mute_on_pause">1</property>
  <property name="mlt_service">avformat</property>
  <property name="kdenlive:clipname"/>
  <property name="kdenlive:folderid">-1</property>
  <property name="kdenlive:id">2</property>
  <property name="kdenlive:file_size">2720913</property>
  <property name="kdenlive:file_hash">80edbde976b1de90c459400b5dca088c</property>
  <property name="kdenlive:audio_max0">174</property>
 </producer>
 <producer id="producer1" in="00:00:00.000" out="00:04:43.343">
  <property name="length">8492</property>
  <property name="eof">pause</property>
  <property name="resource">/mnt/data/Files/Projects/Translating/src/-Songs/Vylet Pony/-Albums/Queen Of Misfits/01-Showtime/assets/source/Sorceress.webm</property>
  <property name="audio_index">1</property>
  <property name="video_index">0</property>
  <property name="mute_on_pause">0</property>
  <property name="mlt_service">avformat-novalidate</property>
  <property name="meta.media.nb_streams">2</property>
  <property name="meta.media.0.stream.type">video</property>
  <property name="meta.media.0.stream.frame_rate">60</property>
  <property name="meta.media.0.stream.sample_aspect_ratio">1</property>
  <property name="meta.media.0.codec.width">1920</property>
  <property name="meta.media.0.codec.height">1080</property>
  <property name="meta.media.0.codec.rotate">0</property>
  <property name="meta.media.0.codec.pix_fmt">yuv420p</property>
  <property name="meta.media.0.codec.sample_aspect_ratio">0</property>
  <property name="meta.media.0.codec.colorspace">709</property>
  <property name="meta.media.0.codec.color_trc">1</property>
  <property name="meta.media.0.codec.name">vp9</property>
  <property name="meta.media.0.codec.long_name">Google VP9</property>
  <property name="meta.media.0.codec.bit_rate">0</property>
  <property name="meta.attr.0.stream.language.markup">eng</property>
  <property name="meta.attr.0.stream.DURATION.markup">00:04:43.316000000</property>
  <property name="meta.media.1.stream.type">audio</property>
  <property name="meta.media.1.codec.sample_fmt">fltp</property>
  <property name="meta.media.1.codec.sample_rate">48000</property>
  <property name="meta.media.1.codec.channels">2</property>
  <property name="meta.media.1.codec.name">opus</property>
  <property name="meta.media.1.codec.long_name">Opus</property>
  <property name="meta.media.1.codec.bit_rate">0</property>
  <property name="meta.attr.1.stream.language.markup">eng</property>
  <property name="meta.attr.1.stream.DURATION.markup">00:04:43.341000000</property>
  <property name="meta.attr.ENCODER.markup">Lavf58.76.100</property>
  <property name="seekable">1</property>
  <property name="meta.media.sample_aspect_num">1</property>
  <property name="meta.media.sample_aspect_den">1</property>
  <property name="aspect_ratio">1</property>
  <property name="kdenlive:clipname"/>
  <property name="kdenlive:folderid">-1</property>
  <property name="meta.media.frame_rate_num">60</property>
  <property name="meta.media.frame_rate_den">1</property>
  <property name="meta.media.colorspace">709</property>
  <property name="meta.media.color_trc">1</property>
  <property name="meta.media.has_b_frames">0</property>
  <property name="meta.media.width">1920</property>
  <property name="meta.media.height">1080</property>
  <property name="meta.media.color_range">mpeg</property>
  <property name="kdenlive:id">3</property>
  <property name="kdenlive:file_size">13847560</property>
  <property name="kdenlive:file_hash">b159d765d5e6dce22957c4388d9e196c</property>
  <property name="kdenlive:audio_max1">250</property>
  <property name="meta.media.top_field_first">0</property>
  <property name="meta.media.progressive">1</property>
 </producer>
 <producer id="producer2" in="00:00:00.000" out="00:00:04.972">
  <property name="length">00:00:05.005</property>
  <property name="eof">pause</property>
  <property name="resource">/mnt/data/Files/Projects/Translating/src/-Songs/Vylet Pony/-Albums/Queen Of Misfits/01-Showtime/assets/source/0x0a080eff</property>
  <property name="aspect_ratio">1</property>
  <property name="mlt_service">color</property>
  <property name="kdenlive:clipname">Color Clip</property>
  <property name="kdenlive:duration">00:00:05.005</property>
  <property name="kdenlive:folderid">-1</property>
  <property name="kdenlive:id">4</property>
  <property name="kdenlive:file_hash">091d97c484078087e0ef69afe0ec657e</property>
  <property name="mlt_image_format">rgb24</property>
 </producer>
 <playlist id="main_bin">
  <property name="kdenlive:docproperties.activeTrack">2</property>
  <property name="kdenlive:docproperties.audioChannels">2</property>
  <property name="kdenlive:docproperties.audioTarget">-1</property>
  <property name="kdenlive:docproperties.disablepreview">0</property>
  <property name="kdenlive:docproperties.documentid">1639221158239</property>
  <property name="kdenlive:docproperties.enableTimelineZone">0</property>
  <property name="kdenlive:docproperties.enableexternalproxy">0</property>
  <property name="kdenlive:docproperties.enableproxy">0</property>
  <property name="kdenlive:docproperties.externalproxyparams">../Sub;;S03.MP4;../Clip;;.MXF</property>
  <property name="kdenlive:docproperties.generateimageproxy">0</property>
  <property name="kdenlive:docproperties.generateproxy">0</property>
  <property name="kdenlive:docproperties.groups">[
    {
        "children": [
            {
                "children": [
                    {
                        "children": [
                            {
                                "data": "2:4933",
                                "leaf": "clip",
                                "type": "Leaf"
                            },
                            {
                                "data": "2:4928",
                                "leaf": "clip",
                                "type": "Leaf"
                            }
                        ],
                        "type": "Normal"
                    },
                    {
                        "children": [
                            {
                                "data": "2:4909",
                                "leaf": "clip",
                                "type": "Leaf"
                            },
                            {
                                "data": "2:4904",
                                "leaf": "clip",
                                "type": "Leaf"
                            }
                        ],
                        "type": "Normal"
                    },
                    {
                        "children": [
                            {
                                "data": "2:4901",
                                "leaf": "clip",
                                "type": "Leaf"
                            },
                            {
                                "data": "2:4896",
                                "leaf": "clip",
                                "type": "Leaf"
                            }
                        ],
                        "type": "Normal"
                    },
                    {
                        "children": [
                            {
                                "data": "2:4925",
                                "leaf": "clip",
                                "type": "Leaf"
                            },
                            {
                                "data": "2:4920",
                                "leaf": "clip",
                                "type": "Leaf"
                            }
                        ],
                        "type": "Normal"
                    },
                    {
                        "children": [
                            {
                                "data": "2:4917",
                                "leaf": "clip",
                                "type": "Leaf"
                            },
                            {
                                "data": "2:4912",
                                "leaf": "clip",
                                "type": "Leaf"
                            }
                        ],
                        "type": "Normal"
                    }
                ],
                "type": "Normal"
            },
            {
                "children": [
                    {
                        "children": [
                            {
                                "data": "2:4973",
                                "leaf": "clip",
                                "type": "Leaf"
                            },
                            {
                                "data": "2:4968",
                                "leaf": "clip",
                                "type": "Leaf"
                            }
                        ],
                        "type": "Normal"
                    },
                    {
                        "children": [
                            {
                                "data": "2:4949",
                                "leaf": "clip",
                                "type": "Leaf"
                            },
                            {
                                "data": "2:4944",
                                "leaf": "clip",
                                "type": "Leaf"
                            }
                        ],
                        "type": "Normal"
                    },
                    {
                        "children": [
                            {
                                "data": "2:4941",
                                "leaf": "clip",
                                "type": "Leaf"
                            },
                            {
                                "data": "2:4936",
                                "leaf": "clip",
                                "type": "Leaf"
                            }
                        ],
                        "type": "Normal"
                    },
                    {
                        "children": [
                            {
                                "data": "2:4965",
                                "leaf": "clip",
                                "type": "Leaf"
                            },
                            {
                                "data": "2:4960",
                                "leaf": "clip",
                                "type": "Leaf"
                            }
                        ],
                        "type": "Normal"
                    },
                    {
                        "children": [
                            {
                                "data": "2:4957",
                                "leaf": "clip",
                                "type": "Leaf"
                            },
                            {
                                "data": "2:4952",
                                "leaf": "clip",
                                "type": "Leaf"
                            }
                        ],
                        "type": "Normal"
                    }
                ],
                "type": "Normal"
            },
            {
                "children": [
                    {
                        "children": [
                            {
                                "data": "2:4893",
                                "leaf": "clip",
                                "type": "Leaf"
                            },
                            {
                                "data": "2:4888",
                                "leaf": "clip",
                                "type": "Leaf"
                            }
                        ],
                        "type": "Normal"
                    },
                    {
                        "children": [
                            {
                                "data": "2:4869",
                                "leaf": "clip",
                                "type": "Leaf"
                            },
                            {
                                "data": "2:4864",
                                "leaf": "clip",
                                "type": "Leaf"
                            }
                        ],
                        "type": "Normal"
                    },
                    {
                        "children": [
                            {
                                "data": "2:4861",
                                "leaf": "clip",
                                "type": "Leaf"
                            },
                            {
                                "data": "2:4856",
                                "leaf": "clip",
                                "type": "Leaf"
                            }
                        ],
                        "type": "Normal"
                    },
                    {
                        "children": [
                            {
                                "data": "2:4885",
                                "leaf": "clip",
                                "type": "Leaf"
                            },
                            {
                                "data": "2:4880",
                                "leaf": "clip",
                                "type": "Leaf"
                            }
                        ],
                        "type": "Normal"
                    },
                    {
                        "children": [
                            {
                                "data": "2:4877",
                                "leaf": "clip",
                                "type": "Leaf"
                            },
                            {
                                "data": "2:4872",
                                "leaf": "clip",
                                "type": "Leaf"
                            }
                        ],
                        "type": "Normal"
                    }
                ],
                "type": "Normal"
            }
        ],
        "type": "Normal"
    },
    {
        "children": [
            {
                "children": [
                    {
                        "children": [
                            {
                                "data": "2:242",
                                "leaf": "clip",
                                "type": "Leaf"
                            },
                            {
                                "data": "2:237",
                                "leaf": "clip",
                                "type": "Leaf"
                            }
                        ],
                        "type": "Normal"
                    },
                    {
                        "children": [
                            {
                                "data": "2:218",
                                "leaf": "clip",
                                "type": "Leaf"
                            },
                            {
                                "data": "2:213",
                                "leaf": "clip",
                                "type": "Leaf"
                            }
                        ],
                        "type": "Normal"
                    },
                    {
                        "children": [
                            {
                                "data": "2:210",
                                "leaf": "clip",
                                "type": "Leaf"
                            },
                            {
                                "data": "2:205",
                                "leaf": "clip",
                                "type": "Leaf"
                            }
                        ],
                        "type": "Normal"
                    },
                    {
                        "children": [
                            {
                                "data": "2:234",
                                "leaf": "clip",
                                "type": "Leaf"
                            },
                            {
                                "data": "2:229",
                                "leaf": "clip",
                                "type": "Leaf"
                            }
                        ],
                        "type": "Normal"
                    },
                    {
                        "children": [
                            {
                                "data": "2:226",
                                "leaf": "clip",
                                "type": "Leaf"
                            },
                            {
                                "data": "2:221",
                                "leaf": "clip",
                                "type": "Leaf"
                            }
                        ],
                        "type": "Normal"
                    }
                ],
                "type": "Normal"
            },
            {
                "children": [
                    {
                        "children": [
                            {
                                "data": "2:282",
                                "leaf": "clip",
                                "type": "Leaf"
                            },
                            {
                                "data": "2:277",
                                "leaf": "clip",
                                "type": "Leaf"
                            }
                        ],
                        "type": "Normal"
                    },
                    {
                        "children": [
                            {
                                "data": "2:258",
                                "leaf": "clip",
                                "type": "Leaf"
                            },
                            {
                                "data": "2:253",
                                "leaf": "clip",
                                "type": "Leaf"
                            }
                        ],
                        "type": "Normal"
                    },
                    {
                        "children": [
                            {
                                "data": "2:250",
                                "leaf": "clip",
                                "type": "Leaf"
                            },
                            {
                                "data": "2:245",
                                "leaf": "clip",
                                "type": "Leaf"
                            }
                        ],
                        "type": "Normal"
                    },
                    {
                        "children": [
                            {
                                "data": "2:274",
                                "leaf": "clip",
                                "type": "Leaf"
                            },
                            {
                                "data": "2:269",
                                "leaf": "clip",
                                "type": "Leaf"
                            }
                        ],
                        "type": "Normal"
                    },
                    {
                        "children": [
                            {
                                "data": "2:266",
                                "leaf": "clip",
                                "type": "Leaf"
                            },
                            {
                                "data": "2:261",
                                "leaf": "clip",
                                "type": "Leaf"
                            }
                        ],
                        "type": "Normal"
                    }
                ],
                "type": "Normal"
            },
            {
                "children": [
                    {
                        "children": [
                            {
                                "data": "2:202",
                                "leaf": "clip",
                                "type": "Leaf"
                            },
                            {
                                "data": "2:197",
                                "leaf": "clip",
                                "type": "Leaf"
                            }
                        ],
                        "type": "Normal"
                    },
                    {
                        "children": [
                            {
                                "data": "2:178",
                                "leaf": "clip",
                                "type": "Leaf"
                            },
                            {
                                "data": "2:173",
                                "leaf": "clip",
                                "type": "Leaf"
                            }
                        ],
                        "type": "Normal"
                    },
                    {
                        "children": [
                            {
                                "data": "2:170",
                                "leaf": "clip",
                                "type": "Leaf"
                            },
                            {
                                "data": "2:165",
                                "leaf": "clip",
                                "type": "Leaf"
                            }
                        ],
                        "type": "Normal"
                    },
                    {
                        "children": [
                            {
                                "data": "2:194",
                                "leaf": "clip",
                                "type": "Leaf"
                            },
                            {
                                "data": "2:189",
                                "leaf": "clip",
                                "type": "Leaf"
                            }
                        ],
                        "type": "Normal"
                    },
                    {
                        "children": [
                            {
                                "data": "2:186",
                                "leaf": "clip",
                                "type": "Leaf"
                            },
                            {
                                "data": "2:181",
                                "leaf": "clip",
                                "type": "Leaf"
                            }
                        ],
                        "type": "Normal"
                    }
                ],
                "type": "Normal"
            }
        ],
        "type": "Normal"
    },
    {
        "children": [
            {
                "data": "2:135",
                "leaf": "clip",
                "type": "Leaf"
            },
            {
                "data": "2:112",
                "leaf": "clip",
                "type": "Leaf"
            },
            {
                "data": "2:128",
                "leaf": "clip",
                "type": "Leaf"
            },
            {
                "data": "2:117",
                "leaf": "clip",
                "type": "Leaf"
            },
            {
                "data": "2:125",
                "leaf": "clip",
                "type": "Leaf"
            },
            {
                "data": "2:107",
                "leaf": "clip",
                "type": "Leaf"
            }
        ],
        "type": "Normal"
    },
    {
        "children": [
            {
                "children": [
                    {
                        "children": [
                            {
                                "data": "2:5053",
                                "leaf": "clip",
                                "type": "Leaf"
                            },
                            {
                                "data": "2:5048",
                                "leaf": "clip",
                                "type": "Leaf"
                            }
                        ],
                        "type": "Normal"
                    },
                    {
                        "children": [
                            {
                                "data": "2:5029",
                                "leaf": "clip",
                                "type": "Leaf"
                            },
                            {
                                "data": "2:5024",
                                "leaf": "clip",
                                "type": "Leaf"
                            }
                        ],
                        "type": "Normal"
                    },
                    {
                        "children": [
                            {
                                "data": "2:5021",
                                "leaf": "clip",
                                "type": "Leaf"
                            },
                            {
                                "data": "2:5016",
                                "leaf": "clip",
                                "type": "Leaf"
                            }
                        ],
                        "type": "Normal"
                    },
                    {
                        "children": [
                            {
                                "data": "2:5045",
                                "leaf": "clip",
                                "type": "Leaf"
                            },
                            {
                                "data": "2:5040",
                                "leaf": "clip",
                                "type": "Leaf"
                            }
                        ],
                        "type": "Normal"
                    },
                    {
                        "children": [
                            {
                                "data": "2:5037",
                                "leaf": "clip",
                                "type": "Leaf"
                            },
                            {
                                "data": "2:5032",
                                "leaf": "clip",
                                "type": "Leaf"
                            }
                        ],
                        "type": "Normal"
                    }
                ],
                "type": "Normal"
            },
            {
                "children": [
                    {
                        "children": [
                            {
                                "data": "2:5093",
                                "leaf": "clip",
                                "type": "Leaf"
                            },
                            {
                                "data": "2:5088",
                                "leaf": "clip",
                                "type": "Leaf"
                            }
                        ],
                        "type": "Normal"
                    },
                    {
                        "children": [
                            {
                                "data": "2:5069",
                                "leaf": "clip",
                                "type": "Leaf"
                            },
                            {
                                "data": "2:5064",
                                "leaf": "clip",
                                "type": "Leaf"
                            }
                        ],
                        "type": "Normal"
                    },
                    {
                        "children": [
                            {
                                "data": "2:5061",
                                "leaf": "clip",
                                "type": "Leaf"
                            },
                            {
                                "data": "2:5056",
                                "leaf": "clip",
                                "type": "Leaf"
                            }
                        ],
                        "type": "Normal"
                    },
                    {
                        "children": [
                            {
                                "data": "2:5085",
                                "leaf": "clip",
                                "type": "Leaf"
                            },
                            {
                                "data": "2:5080",
                                "leaf": "clip",
                                "type": "Leaf"
                            }
                        ],
                        "type": "Normal"
                    },
                    {
                        "children": [
                            {
                                "data": "2:5077",
                                "leaf": "clip",
                                "type": "Leaf"
                            },
                            {
                                "data": "2:5072",
                                "leaf": "clip",
                                "type": "Leaf"
                            }
                        ],
                        "type": "Normal"
                    }
                ],
                "type": "Normal"
            },
            {
                "children": [
                    {
                        "children": [
                            {
                                "data": "2:5013",
                                "leaf": "clip",
                                "type": "Leaf"
                            },
                            {
                                "data": "2:5008",
                                "leaf": "clip",
                                "type": "Leaf"
                            }
                        ],
                        "type": "Normal"
                    },
                    {
                        "children": [
                            {
                                "data": "2:4989",
                                "leaf": "clip",
                                "type": "Leaf"
                            },
                            {
                                "data": "2:4984",
                                "leaf": "clip",
                                "type": "Leaf"
                            }
                        ],
                        "type": "Normal"
                    },
                    {
                        "children": [
                            {
                                "data": "2:4981",
                                "leaf": "clip",
                                "type": "Leaf"
                            },
                            {
                                "data": "2:4976",
                                "leaf": "clip",
                                "type": "Leaf"
                            }
                        ],
                        "type": "Normal"
                    },
                    {
                        "children": [
                            {
                                "data": "2:5005",
                                "leaf": "clip",
                                "type": "Leaf"
                            },
                            {
                                "data": "2:5000",
                                "leaf": "clip",
                                "type": "Leaf"
                            }
                        ],
                        "type": "Normal"
                    },
                    {
                        "children": [
                            {
                                "data": "2:4997",
                                "leaf": "clip",
                                "type": "Leaf"
                            },
                            {
                                "data": "2:4992",
                                "leaf": "clip",
                                "type": "Leaf"
                            }
                        ],
                        "type": "Normal"
                    }
                ],
                "type": "Normal"
            }
        ],
        "type": "Normal"
    },
    {
        "children": [
            {
                "data": "2:28",
                "leaf": "clip",
                "type": "Leaf"
            },
            {
                "data": "2:5",
                "leaf": "clip",
                "type": "Leaf"
            },
            {
                "data": "2:21",
                "leaf": "clip",
                "type": "Leaf"
            },
            {
                "data": "2:10",
                "leaf": "clip",
                "type": "Leaf"
            },
            {
                "data": "2:18",
                "leaf": "clip",
                "type": "Leaf"
            },
            {
                "data": "2:0",
                "leaf": "clip",
                "type": "Leaf"
            }
        ],
        "type": "Normal"
    },
    {
        "children": [
            {
                "data": "2:158",
                "leaf": "clip",
                "type": "Leaf"
            },
            {
                "data": "2:161",
                "leaf": "clip",
                "type": "Leaf"
            },
            {
                "data": "2:150",
                "leaf": "clip",
                "type": "Leaf"
            },
            {
                "data": "2:145",
                "leaf": "clip",
                "type": "Leaf"
            },
            {
                "data": "2:140",
                "leaf": "clip",
                "type": "Leaf"
            }
        ],
        "type": "Normal"
    }
]
</property>
  <property name="kdenlive:docproperties.kdenliveversion">21.08.3</property>
  <property name="kdenlive:docproperties.position">132</property>
  <property name="kdenlive:docproperties.previewextension"/>
  <property name="kdenlive:docproperties.previewparameters"/>
  <property name="kdenlive:docproperties.profile">atsc_1080p_2997</property>
  <property name="kdenlive:docproperties.proxyextension"/>
  <property name="kdenlive:docproperties.proxyimageminsize">2000</property>
  <property name="kdenlive:docproperties.proxyimagesize">800</property>
  <property name="kdenlive:docproperties.proxyminsize">1000</property>
  <property name="kdenlive:docproperties.proxyparams"/>
  <property name="kdenlive:docproperties.proxyresize">640</property>
  <property name="kdenlive:docproperties.renderaudioquality">160</property>
  <property name="kdenlive:docproperties.rendercategory">Generic (HD for web, mobile devices...)</property>
  <property name="kdenlive:docproperties.renderendguide">-1</property>
  <property name="kdenlive:docproperties.renderexportaudio">0</property>
  <property name="kdenlive:docproperties.renderfield">0</property>
  <property name="kdenlive:docproperties.renderguide">0</property>
  <property name="kdenlive:docproperties.renderplay">0</property>
  <property name="kdenlive:docproperties.renderprofile">MP4-H264/AAC</property>
  <property name="kdenlive:docproperties.renderquality">30</property>
  <property name="kdenlive:docproperties.renderratio">1</property>
  <property name="kdenlive:docproperties.renderrescale">0</property>
  <property name="kdenlive:docproperties.renderrescaleheight">540</property>
  <property name="kdenlive:docproperties.renderrescalewidth">960</property>
  <property name="kdenlive:docproperties.renderscanning">0</property>
  <property name="kdenlive:docproperties.renderspeed">2</property>
  <property name="kdenlive:docproperties.renderstartguide">-1</property>
  <property name="kdenlive:docproperties.rendertcoverlay">0</property>
  <property name="kdenlive:docproperties.rendertctype">0</property>
  <property name="kdenlive:docproperties.rendertwopass">0</property>
  <property name="kdenlive:docproperties.renderurl">Showtime.mp4</property>
  <property name="kdenlive:docproperties.renderzone">0</property>
  <property name="kdenlive:docproperties.scrollPos">0</property>
  <property name="kdenlive:docproperties.seekOffset">30000</property>
  <property name="kdenlive:docproperties.version">1.04</property>
  <property name="kdenlive:docproperties.verticalzoom">1</property>
  <property name="kdenlive:docproperties.videoTarget">-1</property>
  <property name="kdenlive:docproperties.zonein">11</property>
  <property name="kdenlive:docproperties.zoneout">86</property>
  <property name="kdenlive:docproperties.zoom">5</property>
  <property name="kdenlive:expandedFolders"/>
  <property name="kdenlive:documentnotes"/>
  <property name="xml_retain">1</property>
  <entry producer="producer0" in="00:00:00.000" out="00:02:50.017"/>
  <entry producer="producer1" in="00:00:00.000" out="00:04:43.343"/>
  <entry producer="producer2" in="00:00:00.000" out="00:00:04.972"/>
 </playlist>
 <producer id="black_track" in="00:00:00.000" out="00:19:31.064">
  <property name="length">2147483647</property>
  <property name="eof">continue</property>
  <property name="resource">black</property>
  <property name="aspect_ratio">1</property>
  <property name="mlt_service">color</property>
  <property name="mlt_image_format">rgb24a</property>
  <property name="set.test_audio">0</property>
 </producer>
 <playlist id="playlist0">
  <property name="kdenlive:audio_track">1</property>
 </playlist>
 <playlist id="playlist1">
  <property name="kdenlive:audio_track">1</property>
 </playlist>
 <tractor id="tractor0" in="00:00:00.000">
  <property name="kdenlive:audio_track">1</property>
  <property name="kdenlive:trackheight">67</property>
  <property name="kdenlive:timeline_active">1</property>
  <property name="kdenlive:collapsed">0</property>
  <property name="kdenlive:thumbs_format"/>
  <property name="kdenlive:audio_rec"/>
  <track hide="video" producer="playlist0"/>
  <track hide="video" producer="playlist1"/>
  <filter id="filter0">
   <property name="window">75</property>
   <property name="max_gain">20dB</property>
   <property name="mlt_service">volume</property>
   <property name="internal_added">237</property>
   <property name="disable">1</property>
  </filter>
  <filter id="filter1">
   <property name="channel">-1</property>
   <property name="mlt_service">panner</property>
   <property name="internal_added">237</property>
   <property name="start">0.5</property>
   <property name="disable">1</property>
  </filter>
  <filter id="filter2">
   <property name="iec_scale">0</property>
   <property name="mlt_service">audiolevel</property>
   <property name="disable">1</property>
  </filter>
 </tractor>
 <producer id="producer3" in="00:00:00.000" out="00:02:50.017">
  <property name="length">5096</property>
  <property name="eof">pause</property>
  <property name="resource">/mnt/data/Files/Projects/Translating/src/-Songs/Vylet Pony/-Albums/Queen Of Misfits/01-Showtime/assets/source/Showtime.mp3</property>
  <property name="audio_index">0</property>
  <property name="video_index">-1</property>
  <property name="mute_on_pause">0</property>
  <property name="mlt_service">avformat-novalidate</property>
  <property name="meta.media.nb_streams">1</property>
  <property name="meta.media.0.stream.type">audio</property>
  <property name="meta.media.0.codec.sample_fmt">fltp</property>
  <property name="meta.media.0.codec.sample_rate">44100</property>
  <property name="meta.media.0.codec.channels">2</property>
  <property name="meta.media.0.codec.name">mp3float</property>
  <property name="meta.media.0.codec.long_name">MP3 (MPEG audio layer 3)</property>
  <property name="meta.media.0.codec.bit_rate">128000</property>
  <property name="meta.attr.0.stream.encoder.markup">LAME3.99r</property>
  <property name="seekable">1</property>
  <property name="kdenlive:clipname"/>
  <property name="kdenlive:folderid">-1</property>
  <property name="kdenlive:id">2</property>
  <property name="kdenlive:file_size">2720913</property>
  <property name="kdenlive:file_hash">80edbde976b1de90c459400b5dca088c</property>
  <property name="kdenlive:audio_max0">174</property>
  <property name="xml">was here</property>
  <property name="set.test_audio">0</property>
  <property name="set.test_image">1</property>
 </producer>
 <playlist id="playlist2">
  <property name="kdenlive:audio_track">1</property>
  <entry producer="producer3" in="00:00:00.000" out="00:02:50.017">
   <property name="kdenlive:id">2</property>
  </entry>
 </playlist>
 <playlist id="playlist3">
  <property name="kdenlive:audio_track">1</property>
 </playlist>
 <tractor id="tractor1" in="00:00:00.000" out="00:02:50.017">
  <property name="kdenlive:audio_track">1</property>
  <property name="kdenlive:trackheight">67</property>
  <property name="kdenlive:timeline_active">1</property>
  <property name="kdenlive:collapsed">0</property>
  <property name="kdenlive:thumbs_format"/>
  <property name="kdenlive:audio_rec"/>
  <track hide="video" producer="playlist2"/>
  <track hide="video" producer="playlist3"/>
  <filter id="filter3">
   <property name="window">75</property>
   <property name="max_gain">20dB</property>
   <property name="mlt_service">volume</property>
   <property name="internal_added">237</property>
   <property name="disable">1</property>
  </filter>
  <filter id="filter4">
   <property name="channel">-1</property>
   <property name="mlt_service">panner</property>
   <property name="internal_added">237</property>
   <property name="start">0.5</property>
   <property name="disable">1</property>
  </filter>
  <filter id="filter5">
   <property name="iec_scale">0</property>
   <property name="mlt_service">audiolevel</property>
   <property name="disable">1</property>
  </filter>
 </tractor>
 <producer id="producer4" in="00:00:00.000" out="00:04:43.343">
  <property name="length">8492</property>
  <property name="eof">pause</property>
  <property name="resource">/mnt/data/Files/Projects/Translating/src/-Songs/Vylet Pony/-Albums/Queen Of Misfits/01-Showtime/assets/source/Sorceress.webm</property>
  <property name="audio_index">1</property>
  <property name="video_index">0</property>
  <property name="mute_on_pause">0</property>
  <property name="mlt_service">avformat-novalidate</property>
  <property name="seekable">1</property>
  <property name="aspect_ratio">1</property>
  <property name="kdenlive:clipname"/>
  <property name="kdenlive:folderid">-1</property>
  <property name="kdenlive:id">3</property>
  <property name="kdenlive:file_size">13847560</property>
  <property name="kdenlive:file_hash">b159d765d5e6dce22957c4388d9e196c</property>
  <property name="kdenlive:audio_max1">250</property>
  <property name="xml">was here</property>
  <property name="meta.media.nb_streams">2</property>
  <property name="meta.media.0.stream.type">video</property>
  <property name="meta.media.0.stream.frame_rate">60</property>
  <property name="meta.media.0.stream.sample_aspect_ratio">1</property>
  <property name="meta.media.0.codec.width">1920</property>
  <property name="meta.media.0.codec.height">1080</property>
  <property name="meta.media.0.codec.rotate">0</property>
  <property name="meta.media.0.codec.pix_fmt">yuv420p</property>
  <property name="meta.media.0.codec.sample_aspect_ratio">0</property>
  <property name="meta.media.0.codec.colorspace">709</property>
  <property name="meta.media.0.codec.color_trc">1</property>
  <property name="meta.media.0.codec.name">vp9</property>
  <property name="meta.media.0.codec.long_name">Google VP9</property>
  <property name="meta.media.0.codec.bit_rate">0</property>
  <property name="meta.attr.0.stream.language.markup">eng</property>
  <property name="meta.attr.0.stream.DURATION.markup">00:04:43.316000000</property>
  <property name="meta.media.1.stream.type">audio</property>
  <property name="meta.media.1.codec.sample_fmt">fltp</property>
  <property name="meta.media.1.codec.sample_rate">48000</property>
  <property name="meta.media.1.codec.channels">2</property>
  <property name="meta.media.1.codec.name">opus</property>
  <property name="meta.media.1.codec.long_name">Opus</property>
  <property name="meta.media.1.codec.bit_rate">0</property>
  <property name="meta.attr.1.stream.language.markup">eng</property>
  <property name="meta.attr.1.stream.DURATION.markup">00:04:43.341000000</property>
  <property name="meta.attr.ENCODER.markup">Lavf58.76.100</property>
  <property name="meta.media.sample_aspect_num">1</property>
  <property name="meta.media.sample_aspect_den">1</property>
  <property name="meta.media.frame_rate_num">60</property>
  <property name="meta.media.frame_rate_den">1</property>
  <property name="meta.media.colorspace">709</property>
  <property name="meta.media.color_trc">1</property>
  <property name="meta.media.has_b_frames">0</property>
  <property name="meta.media.width">1920</property>
  <property name="meta.media.height">1080</property>
  <property name="meta.media.color_range">mpeg</property>
  <property name="meta.media.top_field_first">0</property>
  <property name="meta.media.progressive">1</property>
  <property name="set.test_audio">1</property>
  <property name="set.test_image">0</property>
 </producer>
 <playlist id="playlist4">
  <entry producer="producer4" in="00:00:01.602" out="00:00:01.735">
   <property name="kdenlive:id">3</property>
  </entry>
  <entry producer="producer4" in="00:00:01.602" out="00:00:01.735">
   <property name="kdenlive:id">3</property>
  </entry>
  <entry producer="producer4" in="00:00:01.602" out="00:00:01.835">
   <property name="kdenlive:id">3</property>
  </entry>
  <entry producer="producer4" in="00:00:01.602" out="00:00:01.668">
   <property name="kdenlive:id">3</property>
  </entry>
  <entry producer="producer4" in="00:00:01.602" out="00:00:01.802">
   <property name="kdenlive:id">3</property>
  </entry>
  <entry producer="producer4" in="00:00:01.602" out="00:00:01.735">
   <property name="kdenlive:id">3</property>
  </entry>
  <entry producer="producer4" in="00:00:01.935" out="00:00:04.371">
   <property name="kdenlive:id">3</property>
  </entry>
  <entry producer="producer4" in="00:00:01.602" out="00:00:01.735">
   <property name="kdenlive:id">3</property>
  </entry>
  <entry producer="producer4" in="00:00:01.602" out="00:00:01.735">
   <property name="kdenlive:id">3</property>
  </entry>
  <entry producer="producer4" in="00:00:01.602" out="00:00:01.835">
   <property name="kdenlive:id">3</property>
  </entry>
  <entry producer="producer4" in="00:00:01.602" out="00:00:01.668">
   <property name="kdenlive:id">3</property>
  </entry>
  <entry producer="producer4" in="00:00:01.602" out="00:00:01.802">
   <property name="kdenlive:id">3</property>
  </entry>
  <entry producer="producer4" in="00:00:01.602" out="00:00:01.735">
   <property name="kdenlive:id">3</property>
  </entry>
  <entry producer="producer4" in="00:00:01.602" out="00:00:01.735">
   <property name="kdenlive:id">3</property>
  </entry>
  <entry producer="producer4" in="00:00:01.602" out="00:00:01.735">
   <property name="kdenlive:id">3</property>
  </entry>
  <entry producer="producer4" in="00:00:01.602" out="00:00:01.835">
   <property name="kdenlive:id">3</property>
  </entry>
  <entry producer="producer4" in="00:00:01.602" out="00:00:01.668">
   <property name="kdenlive:id">3</property>
  </entry>
  <entry producer="producer4" in="00:00:01.602" out="00:00:01.702">
   <property name="kdenlive:id">3</property>
  </entry>
  <entry producer="producer4" in="00:00:01.602" out="00:00:01.735">
   <property name="kdenlive:id">3</property>
  </entry>
  <entry producer="producer4" in="00:00:01.602" out="00:00:01.668">
   <property name="kdenlive:id">3</property>
  </entry>
  <entry producer="producer4" in="00:00:01.602" out="00:00:01.735">
   <property name="kdenlive:id">3</property>
  </entry>
  <entry producer="producer4" in="00:00:01.602" out="00:00:01.668">
   <property name="kdenlive:id">3</property>
  </entry>
  <entry producer="producer4" in="00:00:01.602" out="00:00:01.735">
   <property name="kdenlive:id">3</property>
  </entry>
  <entry producer="producer4" in="00:00:01.602" out="00:00:01.668">
   <property name="kdenlive:id">3</property>
  </entry>
  <entry producer="producer4" in="00:00:01.602" out="00:00:01.735">
   <property name="kdenlive:id">3</property>
  </entry>
  <entry producer="producer4" in="00:00:01.602" out="00:00:01.668">
   <property name="kdenlive:id">3</property>
  </entry>
  <entry producer="producer4" in="00:00:01.602" out="00:00:01.735">
   <property name="kdenlive:id">3</property>
  </entry>
  <entry producer="producer4" in="00:00:01.602" out="00:00:01.668">
   <property name="kdenlive:id">3</property>
  </entry>
  <entry producer="producer4" in="00:00:01.602" out="00:00:01.735">
   <property name="kdenlive:id">3</property>
  </entry>
  <entry producer="producer4" in="00:00:01.602" out="00:00:01.668">
   <property name="kdenlive:id">3</property>
  </entry>
  <entry producer="producer4" in="00:00:01.602" out="00:00:01.735">
   <property name="kdenlive:id">3</property>
  </entry>
  <entry producer="producer4" in="00:00:01.602" out="00:00:01.668">
   <property name="kdenlive:id">3</property>
  </entry>
  <entry producer="producer4" in="00:00:01.602" out="00:00:01.735">
   <property name="kdenlive:id">3</property>
  </entry>
  <entry producer="producer4" in="00:00:01.602" out="00:00:01.668">
   <property name="kdenlive:id">3</property>
  </entry>
  <entry producer="producer4" in="00:00:01.602" out="00:00:01.735">
   <property name="kdenlive:id">3</property>
  </entry>
  <entry producer="producer4" in="00:00:01.602" out="00:00:01.668">
   <property name="kdenlive:id">3</property>
  </entry>
  <entry producer="producer4" in="00:00:01.602" out="00:00:01.735">
   <property name="kdenlive:id">3</property>
  </entry>
  <entry producer="producer4" in="00:00:01.602" out="00:00:01.668">
   <property name="kdenlive:id">3</property>
  </entry>
  <entry producer="producer4" in="00:00:01.602" out="00:00:01.735">
   <property name="kdenlive:id">3</property>
  </entry>
  <entry producer="producer4" in="00:00:01.602" out="00:00:01.668">
   <property name="kdenlive:id">3</property>
  </entry>
  <entry producer="producer4" in="00:00:01.602" out="00:00:01.735">
   <property name="kdenlive:id">3</property>
  </entry>
  <entry producer="producer4" in="00:00:01.602" out="00:00:01.668">
   <property name="kdenlive:id">3</property>
  </entry>
  <entry producer="producer4" in="00:00:01.602" out="00:00:01.735">
   <property name="kdenlive:id">3</property>
  </entry>
  <entry producer="producer4" in="00:00:01.602" out="00:00:01.668">
   <property name="kdenlive:id">3</property>
  </entry>
  <entry producer="producer4" in="00:00:01.602" out="00:00:01.735">
   <property name="kdenlive:id">3</property>
  </entry>
  <entry producer="producer4" in="00:00:01.602" out="00:00:01.668">
   <property name="kdenlive:id">3</property>
  </entry>
  <entry producer="producer4" in="00:00:01.602" out="00:00:01.735">
   <property name="kdenlive:id">3</property>
  </entry>
  <entry producer="producer4" in="00:00:01.602" out="00:00:01.668">
   <property name="kdenlive:id">3</property>
  </entry>
  <blank length="00:02:32.532"/>
  <entry producer="producer4" in="00:00:01.602" out="00:00:01.735">
   <property name="kdenlive:id">3</property>
  </entry>
  <entry producer="producer4" in="00:00:01.602" out="00:00:01.668">
   <property name="kdenlive:id">3</property>
  </entry>
  <entry producer="producer4" in="00:00:01.602" out="00:00:01.735">
   <property name="kdenlive:id">3</property>
  </entry>
  <entry producer="producer4" in="00:00:01.602" out="00:00:01.668">
   <property name="kdenlive:id">3</property>
  </entry>
  <entry producer="producer4" in="00:00:01.602" out="00:00:01.735">
   <property name="kdenlive:id">3</property>
  </entry>
  <entry producer="producer4" in="00:00:01.602" out="00:00:01.668">
   <property name="kdenlive:id">3</property>
  </entry>
  <entry producer="producer4" in="00:00:01.602" out="00:00:01.735">
   <property name="kdenlive:id">3</property>
  </entry>
  <entry producer="producer4" in="00:00:01.602" out="00:00:01.668">
   <property name="kdenlive:id">3</property>
  </entry>
  <entry producer="producer4" in="00:00:01.602" out="00:00:01.735">
   <property name="kdenlive:id">3</property>
  </entry>
  <entry producer="producer4" in="00:00:01.602" out="00:00:01.668">
   <property name="kdenlive:id">3</property>
  </entry>
  <entry producer="producer4" in="00:00:01.602" out="00:00:01.735">
   <property name="kdenlive:id">3</property>
  </entry>
  <entry producer="producer4" in="00:00:01.602" out="00:00:01.668">
   <property name="kdenlive:id">3</property>
  </entry>
  <entry producer="producer4" in="00:00:01.602" out="00:00:01.735">
   <property name="kdenlive:id">3</property>
  </entry>
  <entry producer="producer4" in="00:00:01.602" out="00:00:01.668">
   <property name="kdenlive:id">3</property>
  </entry>
  <entry producer="producer4" in="00:00:01.602" out="00:00:01.735">
   <property name="kdenlive:id">3</property>
  </entry>
  <entry producer="producer4" in="00:00:01.602" out="00:00:01.668">
   <property name="kdenlive:id">3</property>
  </entry>
  <entry producer="producer4" in="00:00:01.602" out="00:00:01.735">
   <property name="kdenlive:id">3</property>
  </entry>
  <entry producer="producer4" in="00:00:01.602" out="00:00:01.668">
   <property name="kdenlive:id">3</property>
  </entry>
  <entry producer="producer4" in="00:00:01.602" out="00:00:01.735">
   <property name="kdenlive:id">3</property>
  </entry>
  <entry producer="producer4" in="00:00:01.602" out="00:00:01.668">
   <property name="kdenlive:id">3</property>
  </entry>
  <entry producer="producer4" in="00:00:01.602" out="00:00:01.735">
   <property name="kdenlive:id">3</property>
  </entry>
  <entry producer="producer4" in="00:00:01.602" out="00:00:01.668">
   <property name="kdenlive:id">3</property>
  </entry>
  <entry producer="producer4" in="00:00:01.602" out="00:00:01.735">
   <property name="kdenlive:id">3</property>
  </entry>
  <entry producer="producer4" in="00:00:01.602" out="00:00:01.668">
   <property name="kdenlive:id">3</property>
  </entry>
  <entry producer="producer4" in="00:00:01.602" out="00:00:01.735">
   <property name="kdenlive:id">3</property>
  </entry>
  <entry producer="producer4" in="00:00:01.602" out="00:00:01.668">
   <property name="kdenlive:id">3</property>
  </entry>
  <entry producer="producer4" in="00:00:01.602" out="00:00:01.735">
   <property name="kdenlive:id">3</property>
  </entry>
  <entry producer="producer4" in="00:00:01.602" out="00:00:01.668">
   <property name="kdenlive:id">3</property>
  </entry>
  <entry producer="producer4" in="00:00:01.602" out="00:00:01.735">
   <property name="kdenlive:id">3</property>
  </entry>
  <entry producer="producer4" in="00:00:01.602" out="00:00:01.668">
   <property name="kdenlive:id">3</property>
  </entry>
  <entry producer="producer4" in="00:00:01.602" out="00:00:01.735">
   <property name="kdenlive:id">3</property>
  </entry>
  <entry producer="producer4" in="00:00:01.602" out="00:00:01.668">
   <property name="kdenlive:id">3</property>
  </entry>
  <entry producer="producer4" in="00:00:01.602" out="00:00:01.735">
   <property name="kdenlive:id">3</property>
  </entry>
  <entry producer="producer4" in="00:00:01.602" out="00:00:01.668">
   <property name="kdenlive:id">3</property>
  </entry>
  <entry producer="producer4" in="00:00:01.602" out="00:00:01.735">
   <property name="kdenlive:id">3</property>
  </entry>
  <entry producer="producer4" in="00:00:01.602" out="00:00:01.668">
   <property name="kdenlive:id">3</property>
  </entry>
  <entry producer="producer4" in="00:00:01.602" out="00:00:01.735">
   <property name="kdenlive:id">3</property>
  </entry>
  <entry producer="producer4" in="00:00:01.602" out="00:00:01.668">
   <property name="kdenlive:id">3</property>
  </entry>
  <entry producer="producer4" in="00:00:01.602" out="00:00:01.735">
   <property name="kdenlive:id">3</property>
  </entry>
  <entry producer="producer4" in="00:00:01.602" out="00:00:01.668">
   <property name="kdenlive:id">3</property>
  </entry>
  <entry producer="producer4" in="00:00:01.602" out="00:00:01.735">
   <property name="kdenlive:id">3</property>
  </entry>
  <entry producer="producer4" in="00:00:01.602" out="00:00:01.668">
   <property name="kdenlive:id">3</property>
  </entry>
  <entry producer="producer4" in="00:00:01.602" out="00:00:01.735">
   <property name="kdenlive:id">3</property>
  </entry>
  <entry producer="producer4" in="00:00:01.602" out="00:00:01.668">
   <property name="kdenlive:id">3</property>
  </entry>
  <entry producer="producer4" in="00:00:01.602" out="00:00:01.735">
   <property name="kdenlive:id">3</property>
  </entry>
  <entry producer="producer4" in="00:00:01.602" out="00:00:01.668">
   <property name="kdenlive:id">3</property>
  </entry>
  <entry producer="producer4" in="00:00:01.602" out="00:00:01.735">
   <property name="kdenlive:id">3</property>
  </entry>
  <entry producer="producer4" in="00:00:01.602" out="00:00:01.668">
   <property name="kdenlive:id">3</property>
  </entry>
  <entry producer="producer4" in="00:00:01.602" out="00:00:01.735">
   <property name="kdenlive:id">3</property>
  </entry>
  <entry producer="producer4" in="00:00:01.602" out="00:00:01.668">
   <property name="kdenlive:id">3</property>
  </entry>
  <entry producer="producer4" in="00:00:01.602" out="00:00:01.735">
   <property name="kdenlive:id">3</property>
  </entry>
  <entry producer="producer4" in="00:00:01.602" out="00:00:01.668">
   <property name="kdenlive:id">3</property>
  </entry>
  <entry producer="producer4" in="00:00:01.602" out="00:00:01.735">
   <property name="kdenlive:id">3</property>
  </entry>
  <entry producer="producer4" in="00:00:01.602" out="00:00:01.668">
   <property name="kdenlive:id">3</property>
  </entry>
  <entry producer="producer4" in="00:00:01.602" out="00:00:01.735">
   <property name="kdenlive:id">3</property>
  </entry>
  <entry producer="producer4" in="00:00:01.602" out="00:00:01.668">
   <property name="kdenlive:id">3</property>
  </entry>
  <entry producer="producer4" in="00:00:01.602" out="00:00:01.735">
   <property name="kdenlive:id">3</property>
  </entry>
  <entry producer="producer4" in="00:00:01.602" out="00:00:01.668">
   <property name="kdenlive:id">3</property>
  </entry>
  <entry producer="producer4" in="00:00:01.602" out="00:00:01.735">
   <property name="kdenlive:id">3</property>
  </entry>
  <entry producer="producer4" in="00:00:01.602" out="00:00:01.668">
   <property name="kdenlive:id">3</property>
  </entry>
 </playlist>
 <playlist id="playlist5"/>
 <tractor id="tractor2" in="00:00:00.000" out="00:02:50.017">
  <property name="kdenlive:trackheight">67</property>
  <property name="kdenlive:timeline_active">1</property>
  <property name="kdenlive:collapsed">0</property>
  <property name="kdenlive:thumbs_format"/>
  <property name="kdenlive:audio_rec"/>
  <track hide="audio" producer="playlist4"/>
  <track hide="audio" producer="playlist5"/>
 </tractor>
 <producer id="producer5" in="00:00:00.000" out="00:04:43.343">
  <property name="length">8492</property>
  <property name="eof">pause</property>
  <property name="resource">/mnt/data/Files/Projects/Translating/src/-Songs/Vylet Pony/-Albums/Queen Of Misfits/01-Showtime/assets/source/Sorceress.webm</property>
  <property name="audio_index">1</property>
  <property name="video_index">0</property>
  <property name="mute_on_pause">0</property>
  <property name="mlt_service">avformat-novalidate</property>
  <property name="seekable">1</property>
  <property name="aspect_ratio">1</property>
  <property name="kdenlive:clipname"/>
  <property name="kdenlive:folderid">-1</property>
  <property name="kdenlive:id">3</property>
  <property name="kdenlive:file_size">13847560</property>
  <property name="kdenlive:file_hash">b159d765d5e6dce22957c4388d9e196c</property>
  <property name="kdenlive:audio_max1">250</property>
  <property name="xml">was here</property>
  <property name="meta.media.nb_streams">2</property>
  <property name="meta.media.0.stream.type">video</property>
  <property name="meta.media.0.stream.frame_rate">60</property>
  <property name="meta.media.0.stream.sample_aspect_ratio">1</property>
  <property name="meta.media.0.codec.width">1920</property>
  <property name="meta.media.0.codec.height">1080</property>
  <property name="meta.media.0.codec.rotate">0</property>
  <property name="meta.media.0.codec.pix_fmt">yuv420p</property>
  <property name="meta.media.0.codec.sample_aspect_ratio">0</property>
  <property name="meta.media.0.codec.colorspace">709</property>
  <property name="meta.media.0.codec.color_trc">1</property>
  <property name="meta.media.0.codec.name">vp9</property>
  <property name="meta.media.0.codec.long_name">Google VP9</property>
  <property name="meta.media.0.codec.bit_rate">0</property>
  <property name="meta.attr.0.stream.language.markup">eng</property>
  <property name="meta.attr.0.stream.DURATION.markup">00:04:43.316000000</property>
  <property name="meta.media.1.stream.type">audio</property>
  <property name="meta.media.1.codec.sample_fmt">fltp</property>
  <property name="meta.media.1.codec.sample_rate">48000</property>
  <property name="meta.media.1.codec.channels">2</property>
  <property name="meta.media.1.codec.name">opus</property>
  <property name="meta.media.1.codec.long_name">Opus</property>
  <property name="meta.media.1.codec.bit_rate">0</property>
  <property name="meta.attr.1.stream.language.markup">eng</property>
  <property name="meta.attr.1.stream.DURATION.markup">00:04:43.341000000</property>
  <property name="meta.attr.ENCODER.markup">Lavf58.76.100</property>
  <property name="meta.media.sample_aspect_num">1</property>
  <property name="meta.media.sample_aspect_den">1</property>
  <property name="meta.media.frame_rate_num">60</property>
  <property name="meta.media.frame_rate_den">1</property>
  <property name="meta.media.colorspace">709</property>
  <property name="meta.media.color_trc">1</property>
  <property name="meta.media.has_b_frames">0</property>
  <property name="meta.media.width">1920</property>
  <property name="meta.media.height">1080</property>
  <property name="meta.media.color_range">mpeg</property>
  <property name="meta.media.top_field_first">0</property>
  <property name="meta.media.progressive">1</property>
  <property name="set.test_audio">1</property>
  <property name="set.test_image">0</property>
 </producer>
 <playlist id="playlist6">
  <blank length="00:00:05.772"/>
  <entry producer="producer5" in="00:00:12.246" out="00:02:56.490">
   <property name="kdenlive:id">3</property>
   <property name="kdenlive:activeeffect">1</property>
   <filter id="filter6" in="00:00:12.246" out="00:00:14.248">
    <property name="start">1</property>
    <property name="level">1</property>
    <property name="mlt_service">brightness</property>
    <property name="kdenlive_id">fade_from_black</property>
    <property name="alpha">00:00:00.000=0;00:00:02.002=1</property>
    <property name="kdenlive:collapsed">0</property>
   </filter>
   <filter id="filter7" in="00:02:48.448" out="00:02:56.490">
    <property name="start">1</property>
    <property name="level">1</property>
    <property name="mlt_service">brightness</property>
    <property name="kdenlive_id">fade_to_black</property>
    <property name="alpha">00:00:00.000=1;00:00:08.041=0</property>
    <property name="kdenlive:collapsed">0</property>
   </filter>
  </entry>
 </playlist>
 <playlist id="playlist7"/>
 <tractor id="tractor3" in="00:00:00.000" out="00:02:50.017">
  <property name="kdenlive:trackheight">67</property>
  <property name="kdenlive:timeline_active">1</property>
  <property name="kdenlive:collapsed">0</property>
  <property name="kdenlive:thumbs_format"/>
  <property name="kdenlive:audio_rec"/>
  <track hide="audio" producer="playlist6"/>
  <track hide="audio" producer="playlist7"/>
 </tractor>
 <tractor id="tractor4" in="00:00:00.000" out="00:19:31.064">
  <track producer="black_track"/>
  <track producer="tractor0"/>
  <track producer="tractor1"/>
  <track producer="tractor2"/>
  <track producer="tractor3"/>
  <transition id="transition0">
   <property name="a_track">0</property>
   <property name="b_track">1</property>
   <property name="mlt_service">mix</property>
   <property name="kdenlive_id">mix</property>
   <property name="internal_added">237</property>
   <property name="always_active">1</property>
   <property name="accepts_blanks">1</property>
   <property name="sum">1</property>
  </transition>
  <transition id="transition1">
   <property name="a_track">0</property>
   <property name="b_track">2</property>
   <property name="mlt_service">mix</property>
   <property name="kdenlive_id">mix</property>
   <property name="internal_added">237</property>
   <property name="always_active">1</property>
   <property name="accepts_blanks">1</property>
   <property name="sum">1</property>
  </transition>
  <transition id="transition2">
   <property name="a_track">0</property>
   <property name="b_track">3</property>
   <property name="compositing">0</property>
   <property name="distort">0</property>
   <property name="rotate_center">0</property>
   <property name="mlt_service">qtblend</property>
   <property name="kdenlive_id">qtblend</property>
   <property name="internal_added">237</property>
   <property name="always_active">1</property>
  </transition>
  <transition id="transition3">
   <property name="a_track">0</property>
   <property name="b_track">4</property>
   <property name="compositing">0</property>
   <property name="distort">0</property>
   <property name="rotate_center">0</property>
   <property name="mlt_service">qtblend</property>
   <property name="kdenlive_id">qtblend</property>
   <property name="internal_added">237</property>
   <property name="always_active">1</property>
  </transition>
  <filter id="filter9">
   <property name="window">75</property>
   <property name="max_gain">20dB</property>
   <property name="mlt_service">volume</property>
   <property name="internal_added">237</property>
   <property name="disable">1</property>
  </filter>
  <filter id="filter10">
   <property name="channel">-1</property>
   <property name="mlt_service">panner</property>
   <property name="internal_added">237</property>
   <property name="start">0.5</property>
   <property name="disable">1</property>
  </filter>
  <filter id="filter8">
   <property name="iec_scale">0</property>
   <property name="mlt_service">audiolevel</property>
   <property name="disable">1</property>
  </filter>
 </tractor>
</mlt>
