<svg xmlns="http://www.w3.org/2000/svg" width="16" height="16" viewBox="0 0 16 16">
  <defs>
    <style>
      .a {
        fill: #64b3af;
        fill-rule: evenodd;
        opacity: 0.8;
      }

      .a, .b {
        isolation: isolate;
      }

      .b {
        fill: #252d3a;
        opacity: 0.1;
      }

      .c {
        fill: #4fd6ca;
      }
    </style>
  </defs>
  <g>
    <path class="a" d="M14.83,6.67H9A2.33,2.33,0,0,0,6.67,9v5.6H2.23a1.45,1.45,0,0,1-1-.41,1.45,1.45,0,0,1-.41-1V3.4a1.45,1.45,0,0,1,.41-1,1.45,1.45,0,0,1,1-.41h3.5l1.4,2.1h6.3a1.45,1.45,0,0,1,1,.41,1.34,1.34,0,0,1,.41,1Z"/>
    <rect class="b" x="7.83" y="7.83" width="8.17" height="8.17" rx="1.17"/>
    <path class="c" d="M15.29,15.16a4.37,4.37,0,0,0-3.66-2.53v1.64l-3.09-2.8,3.09-2.81v1.69A3.65,3.65,0,0,1,15.29,14Z"/>
  </g>
</svg>
